<svg xmlns="http://www.w3.org/2000/svg" viewBox="0 0 500 500" width="100%" height="100%">
  <defs>
    <filter id="neon-glow" x="-50%" y="-50%" width="200%" height="200%">
      <feGaussianBlur stdDeviation="12" result="coloredBlur1"/>
      <feGaussianBlur stdDeviation="4" result="coloredBlur2"/>
      <feMerge>
        <feMergeNode in="coloredBlur1" />
        <feMergeNode in="coloredBlur2" />
        <feMergeNode in="SourceGraphic" />
      </feMerge>
    </filter>

    <marker id="arrow" viewBox="0 0 10 10" refX="6" refY="5" markerWidth="6" markerHeight="6" orient="auto-start-reverse">
      <path d="M 0 1.5 L 8 5 L 0 8.5 z" fill="#4ce2f5" />
    </marker>
  </defs>

  <g filter="url(#neon-glow)">
    
    <polygon points="250,70 406,160 406,340 250,430 94,340 94,160" 
             fill="none" stroke="#4ce2f5" stroke-width="4.5" stroke-linejoin="round" />

    <polygon points="250,115 367,182.5 367,317.5 250,385 133,317.5 133,182.5" 
             fill="none" stroke="#4ce2f5" stroke-width="3" stroke-linejoin="round" opacity="0.9" />

    <g stroke="#4ce2f5" stroke-width="1.5" opacity="0.65">
      <line x1="250" y1="70" x2="250" y2="115" />
      <line x1="406" y1="160" x2="367" y2="182.5" />
      <line x1="406" y1="340" x2="367" y2="317.5" />
      <line x1="250" y1="430" x2="250" y2="385" />
      <line x1="94" y1="340" x2="133" y2="317.5" />
      <line x1="94" y1="160" x2="133" y2="182.5" />
      
      <line x1="250" y1="115" x2="367" y2="317.5" />
      <line x1="250" y1="115" x2="133" y2="317.5" />
      <line x1="250" y1="385" x2="367" y2="182.5" />
      <line x1="250" y1="385" x2="133" y2="182.5" />
      <line x1="133" y1="317.5" x2="367" y2="317.5" />
      <line x1="133" y1="182.5" x2="367" y2="182.5" />
    </g>

    <polygon points="250,215 280,232.5 280,267.5 250,285 220,267.5 220,232.5" 
             fill="none" stroke="#4ce2f5" stroke-width="3" stroke-linejoin="round" />

    <g stroke="#4ce2f5" stroke-width="2.5" marker-end="url(#arrow)">
      <line x1="250" y1="215" x2="250" y2="165" />
      <line x1="280" y1="232.5" x2="323" y2="207.5" />
      <line x1="280" y1="267.5" x2="323" y2="292.5" />
      <line x1="250" y1="285" x2="250" y2="335" />
      <line x1="220" y1="267.5" x2="177" y2="292.5" />
      <line x1="220" y1="232.5" x2="177" y2="207.5" />
    </g>

    <circle cx="250" cy="150" r="12" fill="#4ce2f5" />
    <circle cx="250" cy="350" r="12" fill="#4ce2f5" />
    <circle cx="160" cy="250" r="12" fill="#4ce2f5" />
    <circle cx="340" cy="190" r="12" fill="#4ce2f5" />

    <polygon points="170,170 183,177.5 183,192.5 170,200 157,192.5 157,177.5" 
             fill="none" stroke="#4ce2f5" stroke-width="2.5" stroke-linejoin="round" />
    <polygon points="330,300 343,307.5 343,322.5 330,330 317,322.5 317,307.5" 
             fill="none" stroke="#4ce2f5" stroke-width="2.5" stroke-linejoin="round" />

    <g stroke="#4ce2f5" stroke-width="2.5" fill="none" marker-end="url(#arrow)">
      <path d="M 185,185 L 230,158" />
      <path d="M 270,155 L 320,180" />
      <path d="M 340,210 L 333,280" />
      <path d="M 310,318 L 270,342" />
      <path d="M 230,345 L 180,310" />
      <path d="M 160,230 L 168,215" />
    </g>

  </g>
</svg>